<?xml version="1.0" encoding="UTF-8" standalone="no"?>
<svg
   width="82.900444mm"
   height="45.969933mm"
   viewBox="0 0 82.900444 45.969933"
   version="1.1"
   id="svg8"
   inkscape:version="1.1.1 (3bf5ae0d25, 2021-09-20)"
   sodipodi:docname="Folder 5,6,1 - Branco.svg"
   inkscape:export-filename="C:\Users\ELENI\OneDrive\Área de Trabalho\Folder 5,6,1.pdf.png"
   inkscape:export-xdpi="1000"
   inkscape:export-ydpi="1000"
   xmlns:inkscape="http://www.inkscape.org/namespaces/inkscape"
   xmlns:sodipodi="http://sodipodi.sourceforge.net/DTD/sodipodi-0.dtd"
   xmlns:xlink="http://www.w3.org/1999/xlink"
   xmlns="http://www.w3.org/2000/svg"
   xmlns:svg="http://www.w3.org/2000/svg"
   xmlns:rdf="http://www.w3.org/1999/02/22-rdf-syntax-ns#"
   xmlns:cc="http://creativecommons.org/ns#"
   xmlns:dc="http://purl.org/dc/elements/1.1/">
  <defs
     id="defs2">
    <inkscape:path-effect
       effect="powerclip"
       id="path-effect16904"
       is_visible="true"
       lpeversion="1"
       inverse="true"
       flatten="false"
       hide_clip="false"
       message="Usar a regra de preenchimento par ou ímpar na caixa de diálogo &lt;b&gt;preenchimento e contorno&lt;/b&gt; se nenhum resultado nivelar após converter o clipe em caminhos." />
    <inkscape:path-effect
       effect="bspline"
       id="path-effect2066"
       is_visible="true"
       lpeversion="1"
       weight="33.333333"
       steps="2"
       helper_size="0"
       apply_no_weight="true"
       apply_with_weight="true"
       only_selected="false" />
    <inkscape:path-effect
       effect="powerclip"
       id="path-effect20138"
       is_visible="true"
       lpeversion="1"
       inverse="true"
       flatten="false"
       hide_clip="false"
       message="Usar a regra de preenchimento par ou ímpar na caixa de diálogo &lt;b&gt;preenchimento e contorno&lt;/b&gt; se nenhum resultado nivelar após converter o clipe em caminhos." />
    <inkscape:path-effect
       effect="powerclip"
       id="path-effect20096"
       is_visible="true"
       lpeversion="1"
       inverse="true"
       flatten="false"
       hide_clip="false"
       message="Usar a regra de preenchimento par ou ímpar na caixa de diálogo &lt;b&gt;preenchimento e contorno&lt;/b&gt; se nenhum resultado nivelar após converter o clipe em caminhos." />
    <rect
       x="224.89583"
       y="77.258331"
       width="82.505432"
       height="204.37651"
       id="rect1787" />
    <rect
       x="273.8978"
       y="186.34032"
       width="68.848633"
       height="55.752422"
       id="rect14385" />
    <rect
       x="256.31149"
       y="190.45625"
       width="50.513939"
       height="56.126602"
       id="rect14379" />
    <inkscape:path-effect
       effect="bspline"
       id="path-effect14342"
       is_visible="true"
       lpeversion="1"
       weight="33.333333"
       steps="2"
       helper_size="0"
       apply_no_weight="true"
       apply_with_weight="true"
       only_selected="false" />
    <inkscape:path-effect
       effect="bspline"
       id="path-effect13444"
       is_visible="true"
       lpeversion="1"
       weight="33.333333"
       steps="2"
       helper_size="0"
       apply_no_weight="true"
       apply_with_weight="true"
       only_selected="false" />
    <rect
       x="112.78774"
       y="76.439087"
       width="82.319016"
       height="28.33057"
       id="rect1274" />
    <rect
       id="rect3109"
       height="35.279579"
       width="90.337097"
       y="133.63477"
       x="221.83371" />
    <rect
       id="rect3087"
       height="65.903008"
       width="120.9169"
       y="28.865108"
       x="223.43732" />
    <rect
       id="rect3077"
       height="12.405574"
       width="44.81879"
       y="149.67094"
       x="123.47852" />
    <rect
       x="223.43732"
       y="28.865108"
       width="119.37681"
       height="66.67305"
       id="rect3087-7" />
    <rect
       x="223.43732"
       y="28.865108"
       width="119.37681"
       height="66.67305"
       id="rect1227" />
    <clipPath
       clipPathUnits="userSpaceOnUse"
       id="clipPath1311">
      <g
         id="use1313"
         inkscape:label="Clip">
        <rect
           style="fill:#ffffff;stroke-width:1;stroke-opacity:0"
           id="rect1317"
           width="13.827147"
           height="10.086068"
           x="121.34036"
           y="89.936195" />
      </g>
    </clipPath>
    <linearGradient
       id="b">
      <stop
         id="stop3485"
         stop-color="#3771c8"
         offset="0" />
      <stop
         id="stop3487"
         offset=".128"
         stop-color="#3771c8" />
      <stop
         id="stop3489"
         stop-opacity="0"
         stop-color="#60f"
         offset="1" />
    </linearGradient>
    <linearGradient
       id="a">
      <stop
         id="stop3492"
         stop-color="#fd5"
         offset="0" />
      <stop
         id="stop3494"
         stop-color="#fd5"
         offset=".1" />
      <stop
         id="stop3496"
         stop-color="#ff543e"
         offset=".5" />
      <stop
         id="stop3498"
         stop-color="#c837ab"
         offset="1" />
    </linearGradient>
    <radialGradient
       fy="578.08801"
       fx="158.429"
       gradientTransform="matrix(0,-1.98198,1.8439,0,-969.6441,454.004)"
       gradientUnits="userSpaceOnUse"
       xlink:href="#a"
       r="65"
       cy="578.08801"
       cx="158.429"
       id="c" />
    <radialGradient
       fy="473.45499"
       fx="147.694"
       gradientTransform="matrix(0.17394,0.86872,-3.5818,0.71718,1710.106,-458.493)"
       gradientUnits="userSpaceOnUse"
       xlink:href="#b"
       r="65"
       cy="473.45499"
       cx="147.694"
       id="d" />
    <radialGradient
       id="c-2"
       cx="158.429"
       cy="578.08801"
       r="65"
       xlink:href="#a"
       gradientUnits="userSpaceOnUse"
       gradientTransform="matrix(0,-1.98198,1.8439,0,-793.13425,841.0167)"
       fx="158.429"
       fy="578.08801" />
    <radialGradient
       id="d-5"
       cx="147.694"
       cy="473.45499"
       r="65"
       xlink:href="#b"
       gradientUnits="userSpaceOnUse"
       gradientTransform="matrix(0.17394,0.86872,-3.5818,0.71718,1886.6158,-71.480301)"
       fx="147.694"
       fy="473.45499" />
    <radialGradient
       fy="578.08801"
       fx="158.429"
       gradientTransform="matrix(0,-1.98198,1.8439,0,-1031.402,454.004)"
       gradientUnits="userSpaceOnUse"
       xlink:href="#a"
       r="65"
       cy="578.08801"
       cx="158.429"
       id="c-7" />
    <radialGradient
       fy="473.45499"
       fx="147.694"
       gradientTransform="matrix(0.17394,0.86872,-3.5818,0.71718,1648.348,-458.493)"
       gradientUnits="userSpaceOnUse"
       xlink:href="#b"
       r="65"
       cy="473.45499"
       cx="147.694"
       id="d-8" />
    <radialGradient
       fy="578.08801"
       fx="158.429"
       gradientTransform="matrix(0,-6.4666292,6.0161138,0,-3567.0949,1051.436)"
       gradientUnits="userSpaceOnUse"
       xlink:href="#a"
       r="65"
       cy="578.08801"
       cx="158.429"
       id="c-4" />
    <radialGradient
       fy="473.45499"
       fx="147.694"
       gradientTransform="matrix(0.56751604,2.8343826,-11.68638,2.3399515,5176.1564,-1925.7785)"
       gradientUnits="userSpaceOnUse"
       xlink:href="#b"
       r="65"
       cy="473.45499"
       cx="147.694"
       id="d-4" />
    <rect
       x="223.43732"
       y="28.865108"
       width="115.29343"
       height="91.49469"
       id="rect3087-3" />
    <rect
       x="223.43732"
       y="28.865108"
       width="120.9169"
       height="65.903008"
       id="rect14415" />
    <linearGradient
       y2="1"
       id="imagebot_21">
      <stop
         id="stop7"
         offset="0"
         stop-color="#e470e6" />
      <stop
         id="stop9"
         offset="1"
         stop-color="#a849a3" />
    </linearGradient>
    <clipPath
       clipPathUnits="userSpaceOnUse"
       id="clipPath20092">
      <rect
         style="display:block;fill:#ff0000;fill-opacity:1;stroke:none;stroke-width:4.22884;stroke-linejoin:bevel"
         id="rect20094"
         width="15.822387"
         height="14.939863"
         x="-19.5"
         y="60.5"
         rx="2.3076004e-07"
         ry="1.6329104" />
    </clipPath>
    <clipPath
       clipPathUnits="userSpaceOnUse"
       id="clipPath20092-6">
      <rect
         style="display:none;fill:#ff0000;fill-opacity:1;stroke:none;stroke-width:4.22884;stroke-linejoin:bevel"
         id="rect20094-6"
         width="15.822387"
         height="14.939863"
         x="-19.5"
         y="60.5"
         rx="2.3076004e-07"
         ry="1.6329104"
         d="m -19.5,60.5 h 15.8223865 c 1e-7,0 2e-7,0.728278 2e-7,1.63291 v 11.674043 c 0,0.904632 -10e-8,1.63291 -2e-7,1.63291 H -19.5 c 0,0 0,-0.728278 0,-1.63291 V 62.13291 c 0,-0.904632 0,-1.63291 0,-1.63291 z" />
      <path
         id="lpe_path-effect20096-7"
         style="fill:#ff0000;fill-opacity:1;stroke:none;stroke-width:4.22884;stroke-linejoin:bevel"
         class="powerclip"
         d="M -25,55 H 0.82238674 V 79.939863 H -25 Z m 5.5,5.5 c 0,0 0,0.728278 0,1.63291 v 11.674043 c 0,0.904632 0,1.63291 0,1.63291 h 15.8223865 c 1e-7,0 2e-7,-0.728278 2e-7,-1.63291 V 62.13291 c 0,-0.904632 -10e-8,-1.63291 -2e-7,-1.63291 z" />
    </clipPath>
    <clipPath
       clipPathUnits="userSpaceOnUse"
       id="clipath_lpe_path-effect20138">
      <rect
         style="display:block;fill:#ff0000;fill-opacity:1;stroke:none;stroke-width:4.22884;stroke-linejoin:bevel"
         id="rect20140"
         width="15.822387"
         height="14.939863"
         x="-19.5"
         y="60.5"
         rx="2.3076004e-07"
         ry="1.6329104" />
    </clipPath>
    <clipPath
       clipPathUnits="userSpaceOnUse"
       id="clipPath16900">
      <rect
         ry="0.26458332"
         rx="0.26458332"
         y="40.026424"
         x="234.90143"
         height="16.903101"
         width="19.436914"
         id="rect16902"
         style="display:none;fill:#ffffff;fill-opacity:1;stroke:none;stroke-width:0.999998;stroke-opacity:0"
         d="m 235.16601,40.026424 h 18.90775 c 0.14658,0 0.26458,0.118005 0.26458,0.264584 v 16.373934 c 0,0.146579 -0.118,0.264583 -0.26458,0.264583 h -18.90775 c -0.14658,0 -0.26458,-0.118004 -0.26458,-0.264583 V 40.291008 c 0,-0.146579 0.118,-0.264584 0.26458,-0.264584 z" />
      <path
         id="lpe_path-effect16904"
         style="fill:#ffffff;fill-opacity:1;stroke:none;stroke-width:0.999998;stroke-opacity:0"
         class="powerclip"
         d="m 201.39069,12.641776 h 53.27612 V 68.61171 h -53.27612 z m 33.77532,27.384648 c -0.14658,0 -0.26458,0.118005 -0.26458,0.264584 v 16.373934 c 0,0.146579 0.118,0.264583 0.26458,0.264583 h 18.90775 c 0.14658,0 0.26458,-0.118004 0.26458,-0.264583 V 40.291008 c 0,-0.146579 -0.118,-0.264584 -0.26458,-0.264584 z" />
    </clipPath>
  </defs>
  <sodipodi:namedview
     inkscape:snap-others="false"
     inkscape:window-maximized="1"
     inkscape:window-y="-8"
     inkscape:window-x="-8"
     inkscape:window-height="715"
     inkscape:window-width="1366"
     inkscape:snap-nodes="true"
     inkscape:object-nodes="true"
     inkscape:guide-bbox="true"
     showguides="true"
     inkscape:object-paths="true"
     inkscape:snap-smooth-nodes="true"
     inkscape:snap-midpoints="true"
     inkscape:snap-intersection-paths="true"
     inkscape:snap-bbox-midpoints="true"
     inkscape:snap-bbox-edge-midpoints="true"
     inkscape:bbox-nodes="true"
     inkscape:bbox-paths="true"
     inkscape:snap-bbox="true"
     showgrid="false"
     inkscape:document-rotation="0"
     inkscape:current-layer="layer1"
     inkscape:document-units="mm"
     inkscape:cy="53.033007"
     inkscape:cx="80.610171"
     inkscape:zoom="0.7071068"
     inkscape:pageshadow="2"
     inkscape:pageopacity="0.0"
     borderopacity="1.0"
     bordercolor="#666666"
     pagecolor="#ffffff"
     id="base"
     inkscape:snap-grids="false"
     inkscape:snap-to-guides="true"
     inkscape:snap-global="false"
     inkscape:snap-object-midpoints="true"
     inkscape:snap-center="true"
     inkscape:snap-text-baseline="true"
     inkscape:pagecheckerboard="0"
     inkscape:snap-page="false">
    <inkscape:grid
       id="grid833"
       type="xygrid"
       originx="-206.39068"
       originy="-17.641776" />
    <sodipodi:guide
       id="guide974"
       orientation="1,0"
       position="-237.22842,-79.005294" />
  </sodipodi:namedview>
  <metadata
     id="metadata5">
    <rdf:RDF>
      <cc:Work
         rdf:about="">
        <dc:format>image/svg+xml</dc:format>
        <dc:type
           rdf:resource="http://purl.org/dc/dcmitype/StillImage" />
      </cc:Work>
    </rdf:RDF>
  </metadata>
  <g
     id="layer1"
     inkscape:groupmode="layer"
     inkscape:label="Layer 1"
     style="display:inline"
     transform="translate(-206.39069,-17.641776)">
    <path
       style="fill:#0e593e;fill-opacity:1;stroke-width:1"
       d="m 231.9333,63.510131 c -0.0378,-0.0611 -0.0391,-0.517672 -0.003,-1.014597 0.14963,-2.061243 0.37098,-7.146434 0.3713,-8.530088 6.2e-4,-2.636561 -0.31232,-4.499696 -0.99119,-5.901376 -0.36689,-0.75751 -0.69243,-1.201238 -1.79933,-2.452587 l -0.65762,-0.743424 -0.43724,0.456337 c -0.52074,0.543469 -0.88083,1.401798 -1.62933,3.88372 -0.75003,2.48698 -2.13507,8.263953 -2.91301,12.150103 -0.0745,0.372269 -0.18869,0.63552 -0.30189,0.6961 -0.37828,0.202452 -1.87223,0.537323 -2.90855,0.651957 -2.67199,0.295564 -5.95791,-0.584772 -7.41118,-1.98554 l -0.55236,-0.532399 -0.64637,0.25859 c -1.04701,0.41887 -1.99123,0.601603 -3.16537,0.612588 -1.29286,0.01209 -2.49747,-0.194163 -2.49747,-0.427625 0,-0.119239 0.0799,-0.141751 0.3382,-0.09529 2.04372,0.367576 3.12715,0.321924 4.66988,-0.196772 1.10103,-0.370189 1.15738,-0.421371 1.01752,-0.924108 -0.14086,-0.506332 -0.0552,-0.966787 0.23782,-1.278716 0.47981,-0.51073 1.22899,-0.107337 1.22899,0.661739 0,0.266496 -0.10134,0.462454 -0.41536,0.80312 l -0.41536,0.450612 0.44138,0.438825 c 1.3482,1.340404 4.76117,2.222948 7.30942,1.890106 0.94753,-0.123762 2.4278,-0.48384 2.58072,-0.627761 0.0458,-0.04309 0.3618,-1.361429 0.70227,-2.929634 0.82303,-3.790891 2.0637,-8.742105 2.65254,-10.585609 0.69738,-2.183317 1.11688,-2.993989 1.79385,-3.46651 0.20352,-0.142057 0.22189,-0.205095 0.13008,-0.446565 -0.36173,-0.951427 0.2511,-2.348837 1.03007,-2.348837 0.38535,0 0.52801,0.270783 0.52801,1.002198 0,0.568108 -0.10803,0.793672 -0.64977,1.356624 l -0.41735,0.433687 0.73722,0.778885 c 2.52184,2.664373 2.95681,4.783165 2.57811,12.558102 -0.19183,3.938418 -0.22564,5.075032 -0.15311,5.147564 0.0277,0.02765 0.65631,-0.02016 1.39702,-0.106254 5.26323,-0.61175 9.36718,-1.562623 11.25399,-2.607513 0.3552,-0.196702 0.67116,-0.398659 0.70215,-0.448794 0.031,-0.05014 -0.12539,-0.552391 -0.3475,-1.116124 -1.29879,-3.29645 -2.95095,-8.981317 -3.56409,-12.263587 -0.17247,-0.923272 -0.23493,-1.655564 -0.23964,-2.809654 -0.007,-1.807208 0.0182,-1.888964 1.30987,-4.178192 1.42038,-2.517417 1.88518,-3.815419 1.81157,-5.058941 -0.05,-0.845265 -0.24144,-1.401849 -1.04616,-3.042096 -0.7675,-1.564379 -1.33084,-2.450818 -1.98578,-3.124696 -0.38872,-0.399964 -0.51895,-0.472944 -0.79559,-0.44582 -0.2478,0.0243 -0.38152,0.119643 -0.53304,0.380073 -0.20172,0.346705 -0.20161,0.350487 0.0417,1.404827 0.29335,1.271054 0.35387,3.527142 0.11012,4.104956 -0.1801,0.426921 -0.45566,0.590547 -0.7391,0.43886 -0.73529,-0.393515 -0.81403,-2.335075 -0.19415,-4.787395 l 0.22358,-0.884521 -0.43953,-1.612949 c -0.56474,-2.0725 -1.475,-4.80791 -1.91656,-5.759444 -0.36994,-0.797199 -0.83319,-1.420784 -1.05547,-1.420784 -0.41112,0 -0.57894,2.086957 -0.32635,4.05839 0.15465,1.20702 0.37149,3.442797 0.53238,5.489231 0.0565,0.719188 0.0425,0.858506 -0.0866,0.858506 -0.0982,0 -0.17561,-0.141658 -0.21336,-0.39023 -0.22759,-1.498702 -0.54361,-4.518544 -0.63978,-6.113599 -0.1151,-1.90926 -0.68885,-4.528631 -1.14416,-5.223512 -0.0864,-0.131838 -0.2443,-0.239704 -0.35092,-0.239704 -0.58026,0 -1.00982,2.773253 -0.69371,4.478534 0.23868,1.287544 0.45434,3.279018 0.5379,4.967174 0.0642,1.297643 0.0534,1.480724 -0.0875,1.480724 -0.27256,0 -0.62157,-2.261902 -0.81085,-5.255094 -0.12632,-1.997529 -0.27546,-2.683251 -0.69101,-3.177098 -0.52164,-0.619942 -0.9731,-0.32554 -1.19498,0.779263 -0.15881,0.790779 0.0281,2.677087 0.387,3.906724 0.26871,0.92052 0.98276,4.12795 0.98276,4.414461 0,0.09033 -0.0621,0.164234 -0.13805,0.164234 -0.16933,0 -0.66118,-1.726936 -1.1056,-3.881872 -0.4191,-2.032136 -0.70274,-2.607147 -0.91953,-1.864105 -0.34388,1.178623 -0.52778,3.930121 -0.42926,6.422376 0.043,1.08744 0.0819,2.902008 0.0866,4.032374 0.007,1.689643 -0.0173,2.055209 -0.13631,2.055209 -0.23787,0 -0.27389,-0.546784 -0.37012,-5.619308 -0.084,-4.429071 -0.16938,-5.847114 -0.40402,-6.711951 -0.0466,-0.171701 -0.12816,-0.305667 -0.18128,-0.297701 -0.16662,0.02499 -0.85661,2.163232 -1.67429,5.18858 -0.43314,1.602544 -0.80634,2.934007 -0.82935,2.958808 -0.023,0.0248 -0.0884,-0.0014 -0.14527,-0.05833 -0.0685,-0.06853 0.0347,-0.717519 0.30591,-1.923407 0.57619,-2.561854 1.10709,-5.307157 1.35615,-7.01262 0.22863,-1.565633 0.28546,-3.533588 0.10526,-3.644962 -0.59227,-0.366039 -1.90339,3.328322 -3.76798,10.617066 -0.12651,0.49452 -0.2457,0.654368 -0.38409,0.515104 -0.10134,-0.101981 0.31805,-1.851282 1.13368,-4.728596 0.86343,-3.045969 1.50148,-6.851844 1.31519,-7.844882 -0.0875,-0.466253 -0.25139,-0.475555 -0.68279,-0.03875 -0.91927,0.930796 -2.33752,4.862338 -3.75927,10.421045 -0.33512,1.310272 -0.6346,2.407598 -0.66551,2.438502 -0.0309,0.0309 -0.106,0.0064 -0.16689,-0.05451 -0.0782,-0.07823 0.0421,-0.701947 0.41017,-2.126319 0.85944,-3.325814 1.35908,-6.064021 1.36577,-7.484957 0.01,-2.106557 -1.16222,-0.856347 -3.30068,3.520545 l -0.97987,2.00553 0.24153,0.195578 c 0.2089,0.169158 0.24663,0.307956 0.2793,1.027449 0.0444,0.976387 -0.1169,1.629307 -0.72329,2.928792 -0.47172,1.010889 -1.13157,1.935562 -1.45434,2.038005 -0.14262,0.04527 -0.2814,0.0114 -0.38733,-0.09453 -0.31534,-0.315343 0.14536,-2.155441 1.18709,-4.741408 0.19469,-0.483299 0.35398,-0.916454 0.35398,-0.962567 0,-0.13503 -0.1791,-0.09854 -0.68608,0.139763 -0.96002,0.451262 -2.12597,1.757176 -2.83878,3.179556 -1.11268,2.220306 -1.25928,5.260299 -0.34773,7.211091 0.27135,0.580703 1.41436,1.813396 2.44267,2.634331 0.71277,0.569028 0.94735,1.08301 0.88484,1.938751 -0.0411,0.562527 -0.18838,0.994038 -0.84076,2.463022 -1.93831,4.364567 -6.18645,13.04772 -6.38346,13.04772 -0.0766,0 -0.13935,-0.04732 -0.13935,-0.105156 0,-0.05784 0.42313,-0.950434 0.9403,-1.983552 2.19205,-4.378989 5.17163,-10.687204 5.83449,-12.352501 0.35772,-0.898713 0.39153,-1.591188 0.10095,-2.067733 -0.1098,-0.180078 -0.64615,-0.709329 -1.19187,-1.176114 -1.13814,-0.973508 -1.50197,-1.400046 -1.92983,-2.262404 -0.67898,-1.368485 -0.82136,-3.822298 -0.33096,-5.703641 0.28567,-1.09592 1.0118,-2.552539 1.73004,-3.470482 0.77993,-0.996796 2.05754,-1.888674 2.70551,-1.888674 0.20553,0 0.29552,-0.101377 0.48492,-0.546321 0.37165,-0.873101 1.62831,-3.392864 2.0649,-4.140424 1.15415,-1.976173 2.04241,-2.643984 2.45516,-1.845825 0.14494,0.280289 0.1637,0.541333 0.11405,1.586934 l -0.0594,1.251462 0.51153,-1.453132 c 0.95936,-2.725293 1.90373,-4.275544 2.5585,-4.199947 0.18689,0.02158 0.33978,0.127699 0.42345,0.293923 0.16237,0.322578 0.16002,1.414369 -0.006,2.673692 -0.0693,0.526174 -0.11164,0.942386 -0.0942,0.924914 0.0175,-0.01747 0.21448,-0.409596 0.43779,-0.871386 0.22332,-0.461791 0.50295,-0.936536 0.62141,-1.05499 0.28577,-0.285773 0.69425,-0.279096 0.85106,0.01391 0.17267,0.322646 0.0505,2.91209 -0.21498,4.557536 -0.11544,0.715421 -0.20788,1.347594 -0.20542,1.404827 0.002,0.05723 0.13902,-0.268758 0.30345,-0.724425 0.26807,-0.742837 0.50923,-1.096647 0.74749,-1.096647 0.19429,0 0.41075,0.548961 0.52468,1.330607 0.0675,0.463057 0.15426,0.822426 0.19281,0.798599 0.0386,-0.02383 0.10212,-0.326371 0.14126,-0.67232 0.0806,-0.712083 0.31909,-1.463632 0.50003,-1.575454 0.0668,-0.04127 0.20716,-0.02913 0.31198,0.02696 0.17958,0.09611 0.18675,0.05512 0.12423,-0.709674 -0.11607,-1.419847 0.18179,-2.401304 0.82442,-2.716468 0.36062,-0.176854 0.74814,-0.0028 1.07514,0.483024 0.22709,0.337347 0.23522,0.34032 0.28459,0.104061 0.0279,-0.133764 0.0809,-0.518884 0.11758,-0.855823 0.0857,-0.785726 0.2975,-1.486757 0.52542,-1.738603 0.24121,-0.266535 0.71303,-0.2524 0.9754,0.02922 0.23384,0.251006 0.5628,1.062917 0.74039,1.827399 0.18726,0.806154 0.21541,0.83177 0.34972,0.3183 0.15595,-0.596184 0.32352,-0.812282 0.62989,-0.812282 0.40982,0 0.77536,0.410312 1.25405,1.407683 0.50492,1.05203 1.47841,3.911889 2.02802,5.957846 l 0.3433,1.277944 0.27488,-0.263347 c 0.19489,-0.186713 0.3892,-0.263348 0.66774,-0.263348 0.33986,0 0.47317,0.08072 0.98823,0.598353 0.67352,0.676887 1.45738,1.922172 2.19556,3.487981 0.69727,1.479029 0.87856,2.141063 0.87574,3.197955 -0.004,1.366191 -0.30785,2.163627 -1.92949,5.057803 -0.4523,0.807228 -0.91487,1.730903 -1.02794,2.052609 -0.62244,1.770948 0.16159,6.151808 2.31249,12.921381 0.5024,1.581201 1.58978,4.610817 1.69136,4.7124 0.0261,0.02611 0.23153,-0.0983 0.45648,-0.276462 1.02039,-0.808158 2.08386,-1.04504 2.73169,-0.608467 0.63193,0.425862 0.66345,1.024222 0.0884,1.679113 -0.66832,0.761175 -1.99988,0.91238 -2.75557,0.312908 -0.21094,-0.167335 -0.4401,-0.345561 -0.50924,-0.396058 -0.0807,-0.05895 -0.2735,0.006 -0.53858,0.181411 -1.64698,1.089917 -6.18952,2.186736 -11.67927,2.820012 -1.65003,0.190342 -1.75255,0.193076 -1.84154,0.0491 z m 16.57944,-2.816822 c 1.10328,-0.534092 1.04054,-1.745516 -0.0908,-1.752522 -0.68547,-0.0042 -2.24518,0.944771 -2.11411,1.286344 0.0578,0.150671 0.4507,0.458138 0.77071,0.603145 0.31631,0.143334 0.98757,0.07923 1.43417,-0.136967 z m -35.0494,-1.576905 c 0.21596,-0.378877 0.0445,-0.85433 -0.30818,-0.85433 -0.33632,0 -0.54589,0.4013 -0.46149,0.883728 0.035,0.199883 0.0872,0.401648 0.11607,0.448369 0.0769,0.124464 0.47705,-0.168019 0.6536,-0.477767 z M 229.408,44.083727 c 0.3918,-0.420079 0.50046,-0.684768 0.50046,-1.219144 0,-0.633083 -0.23158,-0.737267 -0.63505,-0.285704 -0.32873,0.367909 -0.46089,0.89114 -0.3604,1.426802 0.0824,0.439117 0.1485,0.449543 0.49499,0.07805 z m 10.71048,-10.246466 c 0.21111,-0.394476 0.23575,-2.014465 0.0471,-3.098519 -0.0945,-0.54324 -0.21195,-1.027795 -0.26094,-1.076789 -0.13741,-0.137407 -0.43436,1.32246 -0.49886,2.452453 -0.0463,0.810791 -0.022,1.105998 0.12193,1.482873 0.19661,0.514839 0.39953,0.59727 0.59075,0.239982 z m -22.985,-1.304334 c 0.38433,-0.40492 1.05975,-1.705893 1.37366,-2.645895 0.3159,-0.945955 0.37109,-2.158933 0.10816,-2.377149 -0.0872,-0.0724 -0.1755,-0.113252 -0.19614,-0.09079 -0.18278,0.198937 -1.28705,3.321413 -1.56541,4.426437 -0.26343,1.045711 -0.20249,1.19545 0.27973,0.687394 z"
       id="path14004"
       clip-path="url(#clipPath16900)"
       inkscape:path-effect="#path-effect16904"
       inkscape:original-d="m 231.9333,63.510131 c -0.0378,-0.0611 -0.0391,-0.517672 -0.003,-1.014597 0.14963,-2.061243 0.37098,-7.146434 0.3713,-8.530088 6.2e-4,-2.636561 -0.31232,-4.499696 -0.99119,-5.901376 -0.36689,-0.75751 -0.69243,-1.201238 -1.79933,-2.452587 l -0.65762,-0.743424 -0.43724,0.456337 c -0.52074,0.543469 -0.88083,1.401798 -1.62933,3.88372 -0.75003,2.48698 -2.13507,8.263953 -2.91301,12.150103 -0.0745,0.372269 -0.18869,0.63552 -0.30189,0.6961 -0.37828,0.202452 -1.87223,0.537323 -2.90855,0.651957 -2.67199,0.295564 -5.95791,-0.584772 -7.41118,-1.98554 l -0.55236,-0.532399 -0.64637,0.25859 c -1.04701,0.41887 -1.99123,0.601603 -3.16537,0.612588 -1.29286,0.01209 -2.49747,-0.194163 -2.49747,-0.427625 0,-0.119239 0.0799,-0.141751 0.3382,-0.09529 2.04372,0.367576 3.12715,0.321924 4.66988,-0.196772 1.10103,-0.370189 1.15738,-0.421371 1.01752,-0.924108 -0.14086,-0.506332 -0.0552,-0.966787 0.23782,-1.278716 0.47981,-0.51073 1.22899,-0.107337 1.22899,0.661739 0,0.266496 -0.10134,0.462454 -0.41536,0.80312 l -0.41536,0.450612 0.44138,0.438825 c 1.3482,1.340404 4.76117,2.222948 7.30942,1.890106 0.94753,-0.123762 2.4278,-0.48384 2.58072,-0.627761 0.0458,-0.04309 0.3618,-1.361429 0.70227,-2.929634 0.82303,-3.790891 2.0637,-8.742105 2.65254,-10.585609 0.69738,-2.183317 1.11688,-2.993989 1.79385,-3.46651 0.20352,-0.142057 0.22189,-0.205095 0.13008,-0.446565 -0.36173,-0.951427 0.2511,-2.348837 1.03007,-2.348837 0.38535,0 0.52801,0.270783 0.52801,1.002198 0,0.568108 -0.10803,0.793672 -0.64977,1.356624 l -0.41735,0.433687 0.73722,0.778885 c 2.52184,2.664373 2.95681,4.783165 2.57811,12.558102 -0.19183,3.938418 -0.22564,5.075032 -0.15311,5.147564 0.0277,0.02765 0.65631,-0.02016 1.39702,-0.106254 5.26323,-0.61175 9.36718,-1.562623 11.25399,-2.607513 0.3552,-0.196702 0.67116,-0.398659 0.70215,-0.448794 0.031,-0.05014 -0.12539,-0.552391 -0.3475,-1.116124 -1.29879,-3.29645 -2.95095,-8.981317 -3.56409,-12.263587 -0.17247,-0.923272 -0.23493,-1.655564 -0.23964,-2.809654 -0.007,-1.807208 0.0182,-1.888964 1.30987,-4.178192 1.42038,-2.517417 1.88518,-3.815419 1.81157,-5.058941 -0.05,-0.845265 -0.24144,-1.401849 -1.04616,-3.042096 -0.7675,-1.564379 -1.33084,-2.450818 -1.98578,-3.124696 -0.38872,-0.399964 -0.51895,-0.472944 -0.79559,-0.44582 -0.2478,0.0243 -0.38152,0.119643 -0.53304,0.380073 -0.20172,0.346705 -0.20161,0.350487 0.0417,1.404827 0.29335,1.271054 0.35387,3.527142 0.11012,4.104956 -0.1801,0.426921 -0.45566,0.590547 -0.7391,0.43886 -0.73529,-0.393515 -0.81403,-2.335075 -0.19415,-4.787395 l 0.22358,-0.884521 -0.43953,-1.612949 c -0.56474,-2.0725 -1.475,-4.80791 -1.91656,-5.759444 -0.36994,-0.797199 -0.83319,-1.420784 -1.05547,-1.420784 -0.41112,0 -0.57894,2.086957 -0.32635,4.05839 0.15465,1.20702 0.37149,3.442797 0.53238,5.489231 0.0565,0.719188 0.0425,0.858506 -0.0866,0.858506 -0.0982,0 -0.17561,-0.141658 -0.21336,-0.39023 -0.22759,-1.498702 -0.54361,-4.518544 -0.63978,-6.113599 -0.1151,-1.90926 -0.68885,-4.528631 -1.14416,-5.223512 -0.0864,-0.131838 -0.2443,-0.239704 -0.35092,-0.239704 -0.58026,0 -1.00982,2.773253 -0.69371,4.478534 0.23868,1.287544 0.45434,3.279018 0.5379,4.967174 0.0642,1.297643 0.0534,1.480724 -0.0875,1.480724 -0.27256,0 -0.62157,-2.261902 -0.81085,-5.255094 -0.12632,-1.997529 -0.27546,-2.683251 -0.69101,-3.177098 -0.52164,-0.619942 -0.9731,-0.32554 -1.19498,0.779263 -0.15881,0.790779 0.0281,2.677087 0.387,3.906724 0.26871,0.92052 0.98276,4.12795 0.98276,4.414461 0,0.09033 -0.0621,0.164234 -0.13805,0.164234 -0.16933,0 -0.66118,-1.726936 -1.1056,-3.881872 -0.4191,-2.032136 -0.70274,-2.607147 -0.91953,-1.864105 -0.34388,1.178623 -0.52778,3.930121 -0.42926,6.422376 0.043,1.08744 0.0819,2.902008 0.0866,4.032374 0.007,1.689643 -0.0173,2.055209 -0.13631,2.055209 -0.23787,0 -0.27389,-0.546784 -0.37012,-5.619308 -0.084,-4.429071 -0.16938,-5.847114 -0.40402,-6.711951 -0.0466,-0.171701 -0.12816,-0.305667 -0.18128,-0.297701 -0.16662,0.02499 -0.85661,2.163232 -1.67429,5.18858 -0.43314,1.602544 -0.80634,2.934007 -0.82935,2.958808 -0.023,0.0248 -0.0884,-0.0014 -0.14527,-0.05833 -0.0685,-0.06853 0.0347,-0.717519 0.30591,-1.923407 0.57619,-2.561854 1.10709,-5.307157 1.35615,-7.01262 0.22863,-1.565633 0.28546,-3.533588 0.10526,-3.644962 -0.59227,-0.366039 -1.90339,3.328322 -3.76798,10.617066 -0.12651,0.49452 -0.2457,0.654368 -0.38409,0.515104 -0.10134,-0.101981 0.31805,-1.851282 1.13368,-4.728596 0.86343,-3.045969 1.50148,-6.851844 1.31519,-7.844882 -0.0875,-0.466253 -0.25139,-0.475555 -0.68279,-0.03875 -0.91927,0.930796 -2.33752,4.862338 -3.75927,10.421045 -0.33512,1.310272 -0.6346,2.407598 -0.66551,2.438502 -0.0309,0.0309 -0.106,0.0064 -0.16689,-0.05451 -0.0782,-0.07823 0.0421,-0.701947 0.41017,-2.126319 0.85944,-3.325814 1.35908,-6.064021 1.36577,-7.484957 0.01,-2.106557 -1.16222,-0.856347 -3.30068,3.520545 l -0.97987,2.00553 0.24153,0.195578 c 0.2089,0.169158 0.24663,0.307956 0.2793,1.027449 0.0444,0.976387 -0.1169,1.629307 -0.72329,2.928792 -0.47172,1.010889 -1.13157,1.935562 -1.45434,2.038005 -0.14262,0.04527 -0.2814,0.0114 -0.38733,-0.09453 -0.31534,-0.315343 0.14536,-2.155441 1.18709,-4.741408 0.19469,-0.483299 0.35398,-0.916454 0.35398,-0.962567 0,-0.13503 -0.1791,-0.09854 -0.68608,0.139763 -0.96002,0.451262 -2.12597,1.757176 -2.83878,3.179556 -1.11268,2.220306 -1.25928,5.260299 -0.34773,7.211091 0.27135,0.580703 1.41436,1.813396 2.44267,2.634331 0.71277,0.569028 0.94735,1.08301 0.88484,1.938751 -0.0411,0.562527 -0.18838,0.994038 -0.84076,2.463022 -1.93831,4.364567 -6.18645,13.04772 -6.38346,13.04772 -0.0766,0 -0.13935,-0.04732 -0.13935,-0.105156 0,-0.05784 0.42313,-0.950434 0.9403,-1.983552 2.19205,-4.378989 5.17163,-10.687204 5.83449,-12.352501 0.35772,-0.898713 0.39153,-1.591188 0.10095,-2.067733 -0.1098,-0.180078 -0.64615,-0.709329 -1.19187,-1.176114 -1.13814,-0.973508 -1.50197,-1.400046 -1.92983,-2.262404 -0.67898,-1.368485 -0.82136,-3.822298 -0.33096,-5.703641 0.28567,-1.09592 1.0118,-2.552539 1.73004,-3.470482 0.77993,-0.996796 2.05754,-1.888674 2.70551,-1.888674 0.20553,0 0.29552,-0.101377 0.48492,-0.546321 0.37165,-0.873101 1.62831,-3.392864 2.0649,-4.140424 1.15415,-1.976173 2.04241,-2.643984 2.45516,-1.845825 0.14494,0.280289 0.1637,0.541333 0.11405,1.586934 l -0.0594,1.251462 0.51153,-1.453132 c 0.95936,-2.725293 1.90373,-4.275544 2.5585,-4.199947 0.18689,0.02158 0.33978,0.127699 0.42345,0.293923 0.16237,0.322578 0.16002,1.414369 -0.006,2.673692 -0.0693,0.526174 -0.11164,0.942386 -0.0942,0.924914 0.0175,-0.01747 0.21448,-0.409596 0.43779,-0.871386 0.22332,-0.461791 0.50295,-0.936536 0.62141,-1.05499 0.28577,-0.285773 0.69425,-0.279096 0.85106,0.01391 0.17267,0.322646 0.0505,2.91209 -0.21498,4.557536 -0.11544,0.715421 -0.20788,1.347594 -0.20542,1.404827 0.002,0.05723 0.13902,-0.268758 0.30345,-0.724425 0.26807,-0.742837 0.50923,-1.096647 0.74749,-1.096647 0.19429,0 0.41075,0.548961 0.52468,1.330607 0.0675,0.463057 0.15426,0.822426 0.19281,0.798599 0.0386,-0.02383 0.10212,-0.326371 0.14126,-0.67232 0.0806,-0.712083 0.31909,-1.463632 0.50003,-1.575454 0.0668,-0.04127 0.20716,-0.02913 0.31198,0.02696 0.17958,0.09611 0.18675,0.05512 0.12423,-0.709674 -0.11607,-1.419847 0.18179,-2.401304 0.82442,-2.716468 0.36062,-0.176854 0.74814,-0.0028 1.07514,0.483024 0.22709,0.337347 0.23522,0.34032 0.28459,0.104061 0.0279,-0.133764 0.0809,-0.518884 0.11758,-0.855823 0.0857,-0.785726 0.2975,-1.486757 0.52542,-1.738603 0.24121,-0.266535 0.71303,-0.2524 0.9754,0.02922 0.23384,0.251006 0.5628,1.062917 0.74039,1.827399 0.18726,0.806154 0.21541,0.83177 0.34972,0.3183 0.15595,-0.596184 0.32352,-0.812282 0.62989,-0.812282 0.40982,0 0.77536,0.410312 1.25405,1.407683 0.50492,1.05203 1.47841,3.911889 2.02802,5.957846 l 0.3433,1.277944 0.27488,-0.263347 c 0.19489,-0.186713 0.3892,-0.263348 0.66774,-0.263348 0.33986,0 0.47317,0.08072 0.98823,0.598353 0.67352,0.676887 1.45738,1.922172 2.19556,3.487981 0.69727,1.479029 0.87856,2.141063 0.87574,3.197955 -0.004,1.366191 -0.30785,2.163627 -1.92949,5.057803 -0.4523,0.807228 -0.91487,1.730903 -1.02794,2.052609 -0.62244,1.770948 0.16159,6.151808 2.31249,12.921381 0.5024,1.581201 1.58978,4.610817 1.69136,4.7124 0.0261,0.02611 0.23153,-0.0983 0.45648,-0.276462 1.02039,-0.808158 2.08386,-1.04504 2.73169,-0.608467 0.63193,0.425862 0.66345,1.024222 0.0884,1.679113 -0.66832,0.761175 -1.99988,0.91238 -2.75557,0.312908 -0.21094,-0.167335 -0.4401,-0.345561 -0.50924,-0.396058 -0.0807,-0.05895 -0.2735,0.006 -0.53858,0.181411 -1.64698,1.089917 -6.18952,2.186736 -11.67927,2.820012 -1.65003,0.190342 -1.75255,0.193076 -1.84154,0.0491 z m 16.57944,-2.816822 c 1.10328,-0.534092 1.04054,-1.745516 -0.0908,-1.752522 -0.68547,-0.0042 -2.24518,0.944771 -2.11411,1.286344 0.0578,0.150671 0.4507,0.458138 0.77071,0.603145 0.31631,0.143334 0.98757,0.07923 1.43417,-0.136967 z m -35.0494,-1.576905 c 0.21596,-0.378877 0.0445,-0.85433 -0.30818,-0.85433 -0.33632,0 -0.54589,0.4013 -0.46149,0.883728 0.035,0.199883 0.0872,0.401648 0.11607,0.448369 0.0769,0.124464 0.47705,-0.168019 0.6536,-0.477767 z M 229.408,44.083727 c 0.3918,-0.420079 0.50046,-0.684768 0.50046,-1.219144 0,-0.633083 -0.23158,-0.737267 -0.63505,-0.285704 -0.32873,0.367909 -0.46089,0.89114 -0.3604,1.426802 0.0824,0.439117 0.1485,0.449543 0.49499,0.07805 z m 10.71048,-10.246466 c 0.21111,-0.394476 0.23575,-2.014465 0.0471,-3.098519 -0.0945,-0.54324 -0.21195,-1.027795 -0.26094,-1.076789 -0.13741,-0.137407 -0.43436,1.32246 -0.49886,2.452453 -0.0463,0.810791 -0.022,1.105998 0.12193,1.482873 0.19661,0.514839 0.39953,0.59727 0.59075,0.239982 z m -22.985,-1.304334 c 0.38433,-0.40492 1.05975,-1.705893 1.37366,-2.645895 0.3159,-0.945955 0.37109,-2.158933 0.10816,-2.377149 -0.0872,-0.0724 -0.1755,-0.113252 -0.19614,-0.09079 -0.18278,0.198937 -1.28705,3.321413 -1.56541,4.426437 -0.26343,1.045711 -0.20249,1.19545 0.27973,0.687394 z" />
    <text
       xml:space="preserve"
       id="text14377"
       style="font-style:normal;font-weight:normal;font-size:10.5833px;line-height:1.25;font-family:sans-serif;white-space:pre;shape-inside:url(#rect14379);fill:#000000;fill-opacity:1;stroke:none" />
    <text
       xml:space="preserve"
       id="text14383"
       style="font-style:normal;font-weight:normal;font-size:10.5833px;line-height:1.25;font-family:sans-serif;white-space:pre;shape-inside:url(#rect14385);fill:#000000;fill-opacity:1;stroke:none" />
    <text
       id="text14562"
       y="41.151707"
       x="289.81677"
       style="font-style:normal;font-weight:normal;font-size:14.4876px;line-height:0.75;font-family:sans-serif;fill:#0e593e;fill-opacity:1;stroke:none;stroke-width:0.264582"
       xml:space="preserve"><tspan
         id="tspan14564"
         style="font-style:normal;font-variant:normal;font-weight:normal;font-stretch:normal;font-size:14.4876px;font-family:'Freestyle Script';-inkscape-font-specification:'Freestyle Script';text-align:end;text-anchor:end;fill:#0e593e;fill-opacity:1;stroke-width:0.264582"
         y="41.151707"
         x="289.81677"
         sodipodi:role="line">Saberes de</tspan><tspan
         id="tspan14568"
         style="font-style:normal;font-variant:normal;font-weight:normal;font-stretch:normal;font-size:14.4876px;font-family:'Freestyle Script';-inkscape-font-specification:'Freestyle Script';fill:#0e593e;fill-opacity:1;stroke-width:0.264582"
         y="53.135101"
         x="289.81677"
         sodipodi:role="line" /></text>
    <text
       id="text14572"
       y="53.472076"
       x="235.66974"
       style="font-style:normal;font-weight:normal;font-size:18.1096px;line-height:1.25;font-family:sans-serif;fill:#0e593e;fill-opacity:1;stroke:none;stroke-width:0.264583"
       xml:space="preserve"><tspan
         style="font-style:normal;font-variant:normal;font-weight:normal;font-stretch:normal;font-size:18.1096px;font-family:'Freestyle Script';-inkscape-font-specification:'Freestyle Script';fill:#0e593e;fill-opacity:1;stroke-width:0.264583"
         y="53.472076"
         x="235.66974"
         id="tspan14570"
         sodipodi:role="line">Benzedeiras</tspan></text>
    <text
       id="text1972"
       y="132.10051"
       x="22.796106"
       style="font-style:normal;font-weight:normal;font-size:10.5833px;line-height:1.25;font-family:sans-serif;fill:#000000;fill-opacity:1;stroke:none;stroke-width:0.264583"
       xml:space="preserve"><tspan
         style="stroke-width:0.264583"
         y="132.10051"
         x="22.796106"
         id="tspan1970"
         sodipodi:role="line" /><tspan
         id="tspan1974"
         style="stroke-width:0.264583"
         y="145.32964"
         x="22.796106"
         sodipodi:role="line" /></text>
  </g>
</svg>
